<svg xmlns="http://www.w3.org/2000/svg" width="330" height="27" viewBox="0 0 330 27" fill="none"><path d="M125.679 26.9389C122.776 26.9389 119.45 26.0331 117.857 24.8485L118.919 22.5491H118.954C120.193 24.744 122.847 26.1027 125.891 26.1027C129.642 26.1027 131.872 24.4304 131.872 21.5039C131.872 15.4417 121.219 14.1178 121.219 7.63761C121.219 3.63103 124.794 1.12256 130.032 1.12256C132.792 1.12256 135.517 1.92388 137.18 3.24779L136.083 5.54722H136.048C134.668 3.17811 132.58 1.95871 129.961 1.95871C126.528 1.95871 124.192 3.63103 124.192 6.34854C124.192 11.8532 134.986 13.1423 134.986 20.1103C134.986 24.3956 131.341 26.9389 125.679 26.9389Z" fill="black"></path><path d="M155.62 22.8626C156.221 24.082 157 26.0331 158.132 26.695H153.673L147.409 13.8391L143.622 17.7412L142.808 23.3504C142.56 25.1272 142.702 26.0679 143.268 26.695H138.101C138.88 26.0679 139.163 25.1272 139.411 23.3504L142.065 4.67622C142.348 2.89939 142.277 1.95871 141.676 1.3316H146.843C146.099 1.95871 145.71 2.89939 145.462 4.67622L143.834 16.2431L156.54 3.14327C157.177 2.51615 157.177 1.78452 156.681 1.3316H159.477L149.886 11.261L155.62 22.8626Z" fill="black"></path><path d="M164.688 23.3504C164.44 25.1272 164.546 26.0679 165.148 26.695H159.946C160.724 26.0679 161.043 25.1272 161.29 23.3504L163.874 4.67622C164.086 2.89939 164.015 1.95871 163.414 1.3316H168.616C167.838 1.95871 167.484 2.89939 167.271 4.67622L164.688 23.3504Z" fill="black"></path><path d="M190.314 1.3316H193.074C192.331 1.95871 191.977 2.89939 191.729 4.67622L188.615 26.695H187.306L174.883 5.82594L172.371 23.3504C172.123 25.1272 172.265 26.0679 172.795 26.695H170.07C170.849 26.0679 171.132 25.1272 171.38 23.3504L174.034 4.67622C174.282 2.89939 174.246 1.95871 173.609 1.3316H175.981L188.332 21.8871L190.774 4.67622C191.022 2.89939 190.951 1.95871 190.314 1.3316Z" fill="black"></path><path d="M212.99 1.12256C215.68 1.12256 218.369 2.0284 219.997 3.10843L219.289 5.58206H219.254C218.192 3.94459 216.069 2.20259 213.273 2.20259C207.964 2.20259 204.142 6.34853 204.142 13.8043C204.142 21.8871 207.823 25.8589 213.167 25.8589C215.821 25.8589 217.449 24.7788 219.289 23.1065H219.325L220.174 24.8485C218.192 26.1724 215.963 26.9389 213.096 26.9389C205.098 26.9389 200.355 20.9464 200.32 13.8391C200.32 6.80145 205.204 1.12256 212.99 1.12256Z" fill="black"></path><path d="M239.807 24.082H239.878V26.695H223.598C224.306 26.0679 224.518 25.1272 224.518 23.3504V4.67622C224.518 2.89939 224.306 1.95871 223.598 1.3316H239.771V3.94459H239.701C239.099 2.93423 236.94 2.34195 235.206 2.34195H227.916V12.341H233.861C235.383 12.341 236.445 12.132 237.082 11.5745V14.0481C236.445 13.4907 235.383 13.3165 233.861 13.3165H227.916V25.6847H235.312C237.046 25.6847 239.205 25.0924 239.807 24.082Z" fill="black"></path><path d="M261.094 1.3316H264.173C263.465 1.95871 263.252 2.89939 263.252 4.67622V26.695H261.943L245.699 6.00014V23.3504C245.699 25.1272 245.911 26.0679 246.619 26.695H243.54C244.248 26.0679 244.46 25.1272 244.46 23.3504V4.67622C244.46 2.89939 244.248 1.95871 243.54 1.3316H245.911L262.014 21.6084V4.67622C262.014 2.89939 261.801 1.95871 261.094 1.3316Z" fill="black"></path><path d="M286.956 1.3316V3.94459H286.85C286.284 2.93423 284.125 2.34195 282.391 2.34195H278.604L278.639 23.3504C278.639 25.1272 278.852 26.0679 279.559 26.695H274.286C274.994 26.0679 275.242 25.1272 275.242 23.3504V2.34195H271.667C269.933 2.34195 267.774 2.93423 267.173 3.94459H267.102V1.3316H286.956Z" fill="black"></path><path d="M306.13 24.082H306.201V26.695H289.921C290.629 26.0679 290.841 25.1272 290.841 23.3504V4.67622C290.841 2.89939 290.629 1.95871 289.921 1.3316H306.094V3.94459H306.024C305.422 2.93423 303.263 2.34195 301.529 2.34195H294.239V12.341H300.184C301.706 12.341 302.768 12.132 303.405 11.5745V14.0481C302.768 13.4907 301.706 13.3165 300.184 13.3165H294.239V25.6847H301.635C303.369 25.6847 305.528 25.0924 306.13 24.082Z" fill="black"></path><path d="M330 26.695H324.868C325.399 25.5801 324.302 24.1517 323.559 22.8975L318.994 14.8146C318.321 14.8843 317.613 14.9191 316.905 14.9191H314.145V23.3504C314.145 25.1272 314.357 26.0679 315.065 26.695H309.863C310.571 26.0679 310.783 25.1272 310.783 23.3504V4.67622C310.783 2.93423 310.571 1.95871 309.863 1.3316H317.012C322.851 1.3316 328.054 1.92388 328.054 7.88149C328.054 11.0868 325.647 13.2468 322.179 14.2572L326.886 22.6187C327.664 23.9078 328.549 25.7195 330 26.695ZM316.729 13.9436C321.152 13.9785 324.338 12.2365 324.338 7.84665C324.338 2.65551 320.798 2.37679 316.445 2.34195H314.145V13.9436H316.729Z" fill="black"></path><path d="M4.28801 22.412C4.28801 24.2205 4.49889 25.178 5.20184 25.8163H0C0.702952 25.178 0.913837 24.2205 0.913837 22.412V3.40435C0.913837 1.59579 0.702952 0.638316 0 0H5.20184C4.49889 0.638316 4.28801 1.59579 4.28801 3.40435V22.412Z" fill="black"></path><path d="M34.2049 22.412C34.2049 24.2205 34.4158 25.178 35.1188 25.8163H29.8818C30.5847 25.178 30.8307 24.2205 30.8307 22.412V4.78737L21.9384 25.8163H20.9543L12.1322 3.79443V22.412C12.1322 24.2205 12.3431 25.178 13.0461 25.8163H9.98823C10.6912 25.178 10.9021 24.2205 10.9021 22.412V3.40435C10.9021 1.59579 10.6912 0.638316 9.98823 0H13.9951L22.5359 21.2063L31.5688 0H35.1188C34.4158 0.638316 34.2049 1.59579 34.2049 3.40435V22.412Z" fill="black"></path><path d="M56.017 23.1212H56.1224V25.8163H39.8843C40.5872 25.178 40.7981 24.2205 40.7981 22.412V3.40435C40.7981 1.59579 40.5872 0.638316 39.8843 0H45.0861C44.3832 0.638316 44.1723 1.59579 44.1723 3.40435L44.2074 24.7879H51.5533C53.2755 24.7879 55.4546 24.1851 56.017 23.1212Z" fill="black"></path><path fill-rule="evenodd" clip-rule="evenodd" d="M110 25.8163H63.9796V24.6938H110V25.8163Z" fill="black"></path></svg>